<?xml version="1.0" encoding="utf-8"?>
<!-- Generator: Adobe Illustrator 26.3.1, SVG Export Plug-In . SVG Version: 6.00 Build 0)  -->
<svg version="1.1" id="dark" xmlns="http://www.w3.org/2000/svg" xmlns:xlink="http://www.w3.org/1999/xlink" x="0px" y="0px"
	 viewBox="0 0 968.5 201" style="enable-background:new 0 0 968.5 201;" xml:space="preserve">
<style type="text/css">
	.st0{fill:#002442;}
	.st1{fill:#EF4444;}
</style>
<g id="compy">
	<path class="st0" d="M101,34.8H34.9v131H101v-42.3H136v42.3l-34.9,35H34.9L0,165.9v-131L34.9,0H101L136,34.8v41.3H101V34.8z
		 M34.9,3.9v3.7H101V3.9H34.9z M34.9,11.5v3.9H101v-3.9H34.9z M34.9,19.3v3.9H101v-3.9H34.9z M34.9,27v3.9H101V27H34.9z M34.9,169.7
		v3.9H101v-3.9H34.9z M34.9,177.5v3.9H101v-3.9H34.9z M34.9,185.3v3.9H101v-3.9H34.9z M34.9,193.1v3.9H101v-3.9H34.9z"/>
	<path class="st0" d="M301.2,165.9l-34.9,35h-66.1l-34.9-35v-131L200.1,0h66.1l34.9,34.8V165.9z M200.1,3.9v3.7h66.1V3.9H200.1z
		 M200.1,11.5v3.9h66.1v-3.9H200.1z M200.1,19.3v3.9h66.1v-3.9H200.1z M200.1,27v3.9h66.1V27H200.1z M200.1,34.8v131h66.1v-131
		H200.1z M200.1,169.7v3.9h66.1v-3.9H200.1z M200.1,177.5v3.9h66.1v-3.9H200.1z M200.1,185.3v3.9h66.1v-3.9H200.1z M200.1,193.1v3.9
		h66.1v-3.9H200.1z"/>
	<path class="st0" d="M333.7,9l35-9l56.1,104.6L481,0l35,9v192h-3.9V15.6l-3.9,7.3v178h-3.7V30l-3.9,7.3V201h-3.9V44.6l-3.9,7.3V201
		h-3.9V59.2l-3.9,7.3V201H481V73.9l-36.3,67.8h-39.8l-36.3-67.8V201h-34.9L333.7,9z M420.4,112.9l2.2-4.1l-54-100.7v8.3L420.4,112.9
		z M416,121l2.2-4.1l-49.6-92.6v8.3L416,121z M411.6,129.3l2.2-4.1l-45.2-84.3v8.3L411.6,129.3z M407.1,137.5l2.2-4.1l-40.8-76v8.3
		L407.1,137.5z"/>
	<path class="st0" d="M611.1,162.9v38H576v-38H611.1z"/>
	<path class="st0" d="M671.2,35l34.9-35h66.1l34.9,35v81l-34.9,28.3l-61.3-12.7l0.8-3.9l60.5,12.7v-4l-59.7-12.3l0.8-3.9l58.9,12.3
		v-4l-58.1-12l0.8-3.7l57.3,11.9v-4l-56.5-11.7l0.8-3.7l55.7,11.5v-3.9l-54.8-11.5l0.6-3.7l54.2,11.2V35h-66.1v166h-34.9V35z
		 M772.3,3.9h-66.1v3.9h66.1V3.9z M772.3,11.7h-66.1v3.9h66.1V11.7z M772.3,19.4h-66.1v3.9h66.1V19.4z M772.3,31.1v-3.9h-66.1v3.9
		H772.3z"/>
	<path class="st0" d="M968.5,166l-34.9,35h-66.1l-34.9-35v-23.6h34.9V166h66.1V0h34.9V166z M832.5,0h34.9v88.8l54.1-11.2l0.6,3.7
		l-54.8,11.5v3.9l55.6-11.5l0.8,3.7l-56.4,11.7v4l57.2-11.8l0.8,3.7l-58,12v4l58.8-12.3l0.8,3.9l-59.6,12.3v4l60.5-12.7l0.8,3.9
		l-61.3,12.7l-34.9-28.3V0z M933.6,169.9h-66.1v3.9h66.1V169.9z M933.6,177.7h-66.1v3.9h66.1V177.7z M933.6,185.4h-66.1v3.9h66.1
		V185.4z M933.6,193.2h-66.1v3.9h66.1V193.2z"/>
</g>
<path id="pin" class="st1" d="M593.7,1.1c-21.4,0-39.4,16.4-38.8,38c0.1,4.7,0.9,9.2,2.5,13.3l36.3,103l36.6-104h0
	c1.4-3.9,1.9-8,2.1-12.4C633.3,18.5,615.1,1.1,593.7,1.1z M593.7,55.6c-9.4,0-17-7.4-17-16.5c0-9.1,7.6-16.5,17-16.5
	c9.4,0,17,7.4,17,16.5C610.7,48.3,603.1,55.6,593.7,55.6z"/>
</svg>
