<?xml version="1.0" encoding="utf-8"?>
<!-- Generator: Adobe Illustrator 26.3.1, SVG Export Plug-In . SVG Version: 6.00 Build 0)  -->
<svg version="1.1" id="dark" xmlns="http://www.w3.org/2000/svg" xmlns:xlink="http://www.w3.org/1999/xlink" x="0px" y="0px"
	 viewBox="0 0 968.5 201" style="enable-background:new 0 0 968.5 201;" xml:space="preserve">
<style type="text/css">
	.st0{fill:#DCFFFF;}
	.st1{fill:#EF4444;}
</style>
<g id="compy">
	<path class="st0" d="M101,34.7999992H34.9000015v131H101V123.5h35v42.3000031l-34.9000015,35H34.9000015L0,165.8999939v-131
		L34.9000015,0H101l35,34.7999992v41.2999992h-35V34.7999992z M34.9000015,3.9000001v3.7000003H101V3.9000001H34.9000015z
		 M34.9000015,11.5v3.8999996H101V11.5H34.9000015z M34.9000015,19.2999992v3.8999996H101v-3.8999996H34.9000015z M34.9000015,27
		v3.8999996H101V27H34.9000015z M34.9000015,169.6999969v3.8999939H101v-3.8999939H34.9000015z M34.9000015,177.5v3.8999939H101
		V177.5H34.9000015z M34.9000015,185.3000031v3.8999939H101v-3.8999939H34.9000015z M34.9000015,193.1000061V197H101v-3.8999939
		H34.9000015z"/>
	<path class="st0" d="M301.2000122,165.8999939l-34.8999939,35h-66.1000061l-34.8999939-35v-131L200.1000061,0h66.1000061
		l34.8999939,34.7999992v131.0999908H301.2000122z M200.1000061,3.9000001v3.7000003h66.1000061V3.9000001H200.1000061z
		 M200.1000061,11.5v3.8999996h66.1000061V11.5H200.1000061z M200.1000061,19.2999992v3.8999996h66.1000061v-3.8999996H200.1000061z
		 M200.1000061,27v3.8999996h66.1000061V27H200.1000061z M200.1000061,34.7999992v131h66.1000061v-131
		C266.2000122,34.8000031,200.1000061,34.8000031,200.1000061,34.7999992z M200.1000061,169.6999969v3.8999939h66.1000061
		v-3.8999939H200.1000061z M200.1000061,177.5v3.8999939h66.1000061V177.5H200.1000061z M200.1000061,185.3000031v3.8999939
		h66.1000061v-3.8999939H200.1000061z M200.1000061,193.1000061V197h66.1000061v-3.8999939H200.1000061z"/>
	<path class="st0" d="M333.7000122,9l35-9l56.1000061,104.5999985L481,0l35,9v192h-3.9000244V15.6000004l-3.8999939,7.3000011v178
		h-3.7000122V30l-3.8999939,7.2999992V201h-3.8999939V44.5999985l-3.8999939,7.2999992V201h-3.8999939V59.2000008L485,66.5V201h-4
		V73.9000015l-36.2999878,67.8000107h-39.7999878l-36.2999878-67.8000031V201h-34.8999939L333.7000122,9z M420.3999939,112.9000015
		l2.2000122-4.0999985l-54-100.6999969v8.2999992L420.3999939,112.9000015z M416,121l2.2000122-4.0999985l-49.6000061-92.5999985
		v8.2999992L416,121z M411.6000061,129.3000031l2.2000122-4.0999985l-45.2000122-84.3000031v8.2999992L411.6000061,129.3000031z
		 M407.1000061,137.5l2.2000122-4.1000061l-40.7999878-76v8.3000031L407.1000061,137.5z"/>
	<path class="st0" d="M611.0999756,162.8999939v38H576v-38H611.0999756z"/>
	<path class="st0" d="M671.2000122,35l34.9000244-35h66.0999756l34.9000244,35v81l-34.9000244,28.3000031l-61.2999878-12.6999969
		l0.7999878-3.9000015l60.5,12.7000046v-4L712.5,124.1000061l0.7999878-3.9000015L772.2000122,132.5v-4l-58.0999756-12
		l0.7999878-3.6999969l57.2999878,11.9000015v-4l-56.5-11.6999969L716.5,105.3000107l55.7000122,11.5v-3.9000015l-54.7999878-11.5
		L718,97.7000122l54.2000122,11.1999969V35h-66.0999756v166h-34.9000244V35z M772.2999878,3.9000001h-66.0999756v3.9000001
		h66.0999756V3.9000001z M772.2999878,11.6999998h-66.0999756v3.9000006h66.0999756V11.6999998z M772.2999878,19.3999996
		h-66.0999756v3.8999996h66.0999756V19.3999996z M772.2999878,31.1000004v-3.8999996h-66.0999756v3.8999996H772.2999878z"/>
	<path class="st0" d="M968.5,166l-34.9000244,35H867.5l-34.9000244-35v-23.6000061H867.5V166h66.0999756V0H968.5V166z M832.5,0
		h34.9000244v88.8000031L921.5,77.6000061l0.5999756,3.6999969l-54.7999878,11.5v3.9000015l55.5999756-11.5l0.7999878,3.6999969
		l-56.4000244,11.6999969v4l57.2000122-11.8000031l0.7999878,3.6999969l-58,12v4l58.7999878-12.3000031l0.7999878,3.9000015
		l-59.5999756,12.3000031v4l60.5-12.6999969l0.7999878,3.9000015l-61.2999878,12.6999969L832.3999023,96V0H832.5z
		 M933.5999756,169.8999939H867.5v3.8999939h66.0999756V169.8999939z M933.5999756,177.6999969H867.5v3.8999939h66.0999756
		V177.6999969z M933.5999756,185.3999939H867.5v3.8999939h66.0999756V185.3999939z M933.5999756,193.1999969H867.5v3.8999939
		h66.0999756V193.1999969z"/>
</g>
<path id="pin" class="st1" d="M593.7000122,1.1c-21.4000244,0-39.4000244,16.3999996-38.7999878,38
	c0.0999756,4.7000008,0.9000244,9.2000008,2.5,13.2999992l36.2999878,103l36.5999756-104l0,0
	c1.4000244-3.9000015,1.9000244-8,2.0999756-12.4000015C633.2999878,18.5,615.0999756,1.1,593.7000122,1.1z M593.7000122,55.5999985
	c-9.4000244,0-17-7.4000015-17-16.5s7.5999756-16.5,17-16.5s17,7.3999996,17,16.5
	C610.7000122,48.2999992,603.0999756,55.5999985,593.7000122,55.5999985z"/>
</svg>
